<svg width="150" height="31" viewBox="0 0 150 31" fill="none" xmlns="http://www.w3.org/2000/svg">
<path d="M14.992 10.872L4.592 16.952L14.992 22.904L12.688 26.52L0.24 18.776V15.16L12.752 7.384L14.992 10.872ZM22.5315 9.176C22.7448 10.7973 22.9262 12.3653 23.0755 13.88C23.2248 15.3733 23.2995 16.9627 23.2995 18.648V27H18.8515V4.824H25.4115L31.0435 22.584C30.5315 19.2987 30.2755 16.2053 30.2755 13.304V4.824H34.7235V27H28.3555L22.5315 9.176ZM45.975 9.432C48.5563 9.432 50.5723 10.2533 52.023 11.896C53.495 13.5173 54.231 15.704 54.231 18.456C54.231 21.3147 53.5057 23.544 52.055 25.144C50.6043 26.744 48.5777 27.544 45.975 27.544C43.3723 27.544 41.3457 26.7547 39.895 25.176C38.4443 23.576 37.719 21.3467 37.719 18.488C37.719 16.6747 38.039 15.096 38.679 13.752C39.3403 12.3867 40.2897 11.3307 41.527 10.584C42.7857 9.816 44.2683 9.432 45.975 9.432ZM45.975 13.176C44.9297 13.176 44.1617 13.6027 43.671 14.456C43.1803 15.288 42.935 16.632 42.935 18.488C42.935 20.3653 43.1803 21.7307 43.671 22.584C44.1617 23.416 44.9297 23.832 45.975 23.832C47.0203 23.832 47.7883 23.4053 48.279 22.552C48.7697 21.6987 49.015 20.3333 49.015 18.456C49.015 16.6213 48.7697 15.288 48.279 14.456C47.7883 13.6027 47.0203 13.176 45.975 13.176ZM73.0985 26.008C71.4985 27.032 69.6425 27.544 67.5305 27.544C65.3545 27.544 63.7118 26.9893 62.6025 25.88C61.5145 24.7707 60.9705 23.2133 60.9705 21.208V13.496H57.4185V10.008H60.9705V6.328L66.0265 5.72V10.008H71.4985L70.9865 13.496H66.0265V21.208C66.0265 22.04 66.2185 22.6373 66.6025 23C66.9865 23.3627 67.6052 23.544 68.4585 23.544C69.5252 23.544 70.5172 23.288 71.4345 22.776L73.0985 26.008ZM81.374 19.992C81.694 22.5733 83.0593 23.864 85.47 23.864C86.9207 23.864 88.3713 23.3947 89.822 22.456L91.838 25.208C91.006 25.9333 90.014 26.5093 88.862 26.936C87.71 27.3413 86.4407 27.544 85.054 27.544C83.1553 27.544 81.5447 27.1707 80.222 26.424C78.8993 25.656 77.8967 24.6 77.214 23.256C76.5527 21.8907 76.222 20.312 76.222 18.52C76.222 16.8133 76.542 15.2773 77.182 13.912C77.8433 12.5253 78.7927 11.4373 80.03 10.648C81.2887 9.83733 82.782 9.432 84.51 9.432C86.1313 9.432 87.5393 9.784 88.734 10.488C89.9287 11.1707 90.846 12.1733 91.486 13.496C92.1473 14.7973 92.478 16.3547 92.478 18.168C92.478 18.872 92.446 19.48 92.382 19.992H81.374ZM84.51 12.824C83.5927 12.824 82.8567 13.1653 82.302 13.848C81.7473 14.5093 81.4167 15.5333 81.31 16.92H87.55C87.5073 14.1893 86.494 12.824 84.51 12.824ZM102.994 23.928C103.868 23.928 104.551 23.8 105.042 23.544C105.554 23.2667 105.81 22.8613 105.81 22.328C105.81 21.944 105.703 21.6347 105.49 21.4C105.298 21.1653 104.924 20.9413 104.37 20.728C103.815 20.4933 102.951 20.216 101.778 19.896C100.071 19.448 98.7695 18.8293 97.8735 18.04C96.9775 17.2293 96.5295 16.12 96.5295 14.712C96.5295 13.1547 97.1695 11.8853 98.4495 10.904C99.7508 9.92267 101.564 9.432 103.89 9.432C106.578 9.432 108.871 10.1253 110.77 11.512L108.754 14.488C107.196 13.528 105.628 13.048 104.05 13.048C103.218 13.048 102.599 13.1547 102.194 13.368C101.81 13.5813 101.618 13.912 101.618 14.36C101.618 14.6587 101.714 14.9147 101.906 15.128C102.119 15.32 102.503 15.5227 103.058 15.736C103.634 15.9493 104.487 16.216 105.618 16.536C106.834 16.8773 107.826 17.2507 108.594 17.656C109.383 18.0613 109.991 18.6053 110.418 19.288C110.844 19.9707 111.058 20.8453 111.058 21.912C111.058 23.1067 110.695 24.1307 109.97 24.984C109.244 25.8373 108.274 26.4773 107.058 26.904C105.842 27.3307 104.498 27.544 103.026 27.544C101.447 27.544 100.018 27.32 98.7375 26.872C97.4575 26.424 96.3695 25.7947 95.4735 24.984L98.0015 22.136C99.5375 23.3307 101.202 23.928 102.994 23.928ZM114.053 28.76L127.493 0.855999L131.397 2.68L117.989 30.584L114.053 28.76ZM149.305 15.128V18.776L136.825 26.52L134.553 23.064L144.921 16.952L134.553 11.032L136.793 7.384L149.305 15.128Z" fill="#14B8A6"/>
</svg>
